<svg xmlns="http://www.w3.org/2000/svg" xmlns:xlink="http://www.w3.org/1999/xlink" width="800" zoomAndPan="magnify" viewBox="0 0 600 599.999999" height="800" preserveAspectRatio="xMidYMid meet" version="1.0"><defs><clipPath id="46d3578815"><path d="M 0 167.128906 L 600 167.128906 L 600 432.628906 L 0 432.628906 Z M 0 167.128906 " clip-rule="nonzero"/></clipPath></defs><g clip-path="url(#46d3578815)"><path fill="#00a1ff" d="M 516.574219 337.09375 L 516.894531 336.800781 L 512.121094 332.410156 L 484.605469 323.738281 L 430.175781 236.75 L 385.320312 256.160156 L 312.246094 167.144531 L 191.921875 324.984375 L 148.296875 270.449219 L -7.828125 432.894531 L 101.96875 334.21875 L 110.101562 347.449219 L 144.996094 290.902344 L 144.996094 333.011719 L 160.632812 347.449219 L 137.769531 361.886719 L 116.117188 407.621094 L 141.375 381.148438 L 160.632812 425.664062 L 160.632812 391.980469 L 172.664062 390.769531 L 172.664062 361.886719 L 225.605469 346.25 L 207.5625 324.984375 L 309.851562 205.457031 L 294.203125 256.160156 L 317.066406 270.449219 L 293.003906 275.246094 L 299.035156 283.671875 L 282.167969 287.296875 L 265.320312 319.183594 L 283.367188 345.039062 L 272.546875 342.648438 L 256.898438 358.285156 L 217.199219 420.863281 L 248.472656 393.175781 C 248.472656 393.175781 246.660156 418.40625 245.648438 423.609375 C 248.992188 419.359375 272.546875 403.199219 272.546875 403.199219 L 299.035156 423.65625 L 313.859375 377.542969 L 327.085938 401.203125 L 321.882812 364.300781 L 335.921875 340.636719 C 335.921875 340.636719 366.199219 415.570312 366.796875 416.839844 C 366.398438 415.644531 373.226562 356.691406 373.226562 356.691406 L 393.6875 391.171875 L 387.253906 362.289062 L 415.339844 376.726562 L 400.097656 338.636719 L 424.5625 267.222656 L 481.519531 343.445312 L 485.527344 389.171875 L 491.859375 362.441406 L 493.582031 366 C 494.996094 379.089844 497.203125 405.160156 492.757812 405.160156 C 488.425781 405.160156 473.691406 422.089844 466.390625 429.667969 C 476.625 424.113281 502.148438 415.382812 502.148438 415.382812 L 511.648438 403.226562 L 520.101562 392.410156 L 524.257812 387.101562 L 527.726562 382.652344 L 607.828125 432.894531 L 516.574219 337.09375 " fill-opacity="1" fill-rule="nonzero"/></g></svg>
